<svg width="97" height="55" viewBox="0 0 97 55" fill="none" xmlns="http://www.w3.org/2000/svg">
<path d="M2.02872 36V11.0859H8.93349L18.8991 27.3512H15.2688L24.9497 11.0859H31.8545L31.9257 36H24.2735L24.2023 22.6176H25.4124L18.7924 33.7577H15.0908L8.18607 22.6176H9.68092V36H2.02872ZM42.4644 36V17.5991H35.1681V11.0859H58.1603V17.5991H50.864V36H42.4644Z" fill="#A3A3A3"/>
<path d="M60.424 7.02749C60.2916 7.08326 60.2052 7.2134 60.2052 7.35781V11.2752L51.3541 11.2752C51.1586 11.2752 51 11.4354 51 11.6327V17.3526C51 17.5499 51.1586 17.7101 51.3541 17.7101H60.2053V21.6425C60.2053 21.7869 60.2917 21.9171 60.4234 21.9728C60.5558 22.0279 60.708 21.9979 60.8093 21.8956L67.8959 14.7636C67.9625 14.6964 68 14.6056 68 14.5105C68 14.4154 67.9625 14.3246 67.8966 14.2574L60.81 7.10471C60.7087 7.00245 60.5565 6.97172 60.424 7.02749Z" fill="#A3A3A3"/>
<path d="M1.485 51V39.87H2.55V51H1.485ZM9.17332 51.075C8.41332 51.075 7.72832 50.905 7.11832 50.565C6.51832 50.215 6.04332 49.74 5.69332 49.14C5.34332 48.53 5.16832 47.835 5.16832 47.055C5.16832 46.265 5.34332 45.57 5.69332 44.97C6.04332 44.37 6.51832 43.9 7.11832 43.56C7.71832 43.22 8.40332 43.05 9.17332 43.05C9.95332 43.05 10.6433 43.22 11.2433 43.56C11.8533 43.9 12.3283 44.37 12.6683 44.97C13.0183 45.57 13.1933 46.265 13.1933 47.055C13.1933 47.835 13.0183 48.53 12.6683 49.14C12.3283 49.74 11.8533 50.215 11.2433 50.565C10.6333 50.905 9.94332 51.075 9.17332 51.075ZM9.17332 50.13C9.74332 50.13 10.2483 50.005 10.6883 49.755C11.1283 49.495 11.4733 49.135 11.7233 48.675C11.9833 48.205 12.1133 47.665 12.1133 47.055C12.1133 46.435 11.9833 45.895 11.7233 45.435C11.4733 44.975 11.1283 44.62 10.6883 44.37C10.2483 44.11 9.74832 43.98 9.18832 43.98C8.62832 43.98 8.12832 44.11 7.68832 44.37C7.24832 44.62 6.89832 44.975 6.63832 45.435C6.37832 45.895 6.24832 46.435 6.24832 47.055C6.24832 47.665 6.37832 48.205 6.63832 48.675C6.89832 49.135 7.24832 49.495 7.68832 49.755C8.12832 50.005 8.62332 50.13 9.17332 50.13ZM19.1776 53.985C18.4576 53.985 17.7676 53.88 17.1076 53.67C16.4476 53.46 15.9126 53.16 15.5026 52.77L16.0426 51.96C16.4126 52.29 16.8676 52.55 17.4076 52.74C17.9576 52.94 18.5376 53.04 19.1476 53.04C20.1476 53.04 20.8826 52.805 21.3526 52.335C21.8226 51.875 22.0576 51.155 22.0576 50.175V48.21L22.2076 46.86L22.1026 45.51V43.125H23.1226V50.04C23.1226 51.4 22.7876 52.395 22.1176 53.025C21.4576 53.665 20.4776 53.985 19.1776 53.985ZM18.9826 50.7C18.2326 50.7 17.5576 50.54 16.9576 50.22C16.3576 49.89 15.8826 49.435 15.5326 48.855C15.1926 48.275 15.0226 47.61 15.0226 46.86C15.0226 46.11 15.1926 45.45 15.5326 44.88C15.8826 44.3 16.3576 43.85 16.9576 43.53C17.5576 43.21 18.2326 43.05 18.9826 43.05C19.6826 43.05 20.3126 43.195 20.8726 43.485C21.4326 43.775 21.8776 44.205 22.2076 44.775C22.5376 45.345 22.7026 46.04 22.7026 46.86C22.7026 47.68 22.5376 48.375 22.2076 48.945C21.8776 49.515 21.4326 49.95 20.8726 50.25C20.3126 50.55 19.6826 50.7 18.9826 50.7ZM19.0876 49.755C19.6676 49.755 20.1826 49.635 20.6326 49.395C21.0826 49.145 21.4376 48.805 21.6976 48.375C21.9576 47.935 22.0876 47.43 22.0876 46.86C22.0876 46.29 21.9576 45.79 21.6976 45.36C21.4376 44.93 21.0826 44.595 20.6326 44.355C20.1826 44.105 19.6676 43.98 19.0876 43.98C18.5176 43.98 18.0026 44.105 17.5426 44.355C17.0926 44.595 16.7376 44.93 16.4776 45.36C16.2276 45.79 16.1026 46.29 16.1026 46.86C16.1026 47.43 16.2276 47.935 16.4776 48.375C16.7376 48.805 17.0926 49.145 17.5426 49.395C18.0026 49.635 18.5176 49.755 19.0876 49.755ZM26.5362 51V43.125H27.6012V51H26.5362ZM27.0762 41.385C26.8562 41.385 26.6712 41.31 26.5212 41.16C26.3712 41.01 26.2962 40.83 26.2962 40.62C26.2962 40.41 26.3712 40.235 26.5212 40.095C26.6712 39.945 26.8562 39.87 27.0762 39.87C27.2962 39.87 27.4812 39.94 27.6312 40.08C27.7812 40.22 27.8562 40.395 27.8562 40.605C27.8562 40.825 27.7812 41.01 27.6312 41.16C27.4912 41.31 27.3062 41.385 27.0762 41.385ZM33.1295 51.075C32.4795 51.075 31.8645 50.985 31.2845 50.805C30.7045 50.615 30.2495 50.38 29.9195 50.1L30.3995 49.26C30.7195 49.5 31.1295 49.71 31.6295 49.89C32.1295 50.06 32.6545 50.145 33.2045 50.145C33.9545 50.145 34.4945 50.03 34.8245 49.8C35.1545 49.56 35.3195 49.245 35.3195 48.855C35.3195 48.565 35.2245 48.34 35.0345 48.18C34.8545 48.01 34.6145 47.885 34.3145 47.805C34.0145 47.715 33.6795 47.64 33.3095 47.58C32.9395 47.52 32.5695 47.45 32.1995 47.37C31.8395 47.29 31.5095 47.175 31.2095 47.025C30.9095 46.865 30.6645 46.65 30.4745 46.38C30.2945 46.11 30.2045 45.75 30.2045 45.3C30.2045 44.87 30.3245 44.485 30.5645 44.145C30.8045 43.805 31.1545 43.54 31.6145 43.35C32.0845 43.15 32.6545 43.05 33.3245 43.05C33.8345 43.05 34.3445 43.12 34.8545 43.26C35.3645 43.39 35.7845 43.565 36.1145 43.785L35.6495 44.64C35.2995 44.4 34.9245 44.23 34.5245 44.13C34.1245 44.02 33.7245 43.965 33.3245 43.965C32.6145 43.965 32.0895 44.09 31.7495 44.34C31.4195 44.58 31.2545 44.89 31.2545 45.27C31.2545 45.57 31.3445 45.805 31.5245 45.975C31.7145 46.145 31.9595 46.28 32.2595 46.38C32.5695 46.47 32.9045 46.545 33.2645 46.605C33.6345 46.665 33.9995 46.74 34.3595 46.83C34.7295 46.91 35.0645 47.025 35.3645 47.175C35.6745 47.315 35.9195 47.52 36.0995 47.79C36.2895 48.05 36.3845 48.395 36.3845 48.825C36.3845 49.285 36.2545 49.685 35.9945 50.025C35.7445 50.355 35.3745 50.615 34.8845 50.805C34.4045 50.985 33.8195 51.075 33.1295 51.075ZM41.2787 51.075C40.5387 51.075 39.9687 50.875 39.5687 50.475C39.1687 50.075 38.9687 49.51 38.9687 48.78V41.385H40.0337V48.72C40.0337 49.18 40.1487 49.535 40.3787 49.785C40.6187 50.035 40.9587 50.16 41.3987 50.16C41.8687 50.16 42.2587 50.025 42.5687 49.755L42.9437 50.52C42.7337 50.71 42.4787 50.85 42.1787 50.94C41.8887 51.03 41.5887 51.075 41.2787 51.075ZM37.5587 44.01V43.125H42.4337V44.01H37.5587ZM45.3325 51V43.125H46.3975V51H45.3325ZM45.8725 41.385C45.6525 41.385 45.4675 41.31 45.3175 41.16C45.1675 41.01 45.0925 40.83 45.0925 40.62C45.0925 40.41 45.1675 40.235 45.3175 40.095C45.4675 39.945 45.6525 39.87 45.8725 39.87C46.0925 39.87 46.2775 39.94 46.4275 40.08C46.5775 40.22 46.6525 40.395 46.6525 40.605C46.6525 40.825 46.5775 41.01 46.4275 41.16C46.2875 41.31 46.1025 41.385 45.8725 41.385ZM53.0808 51.075C52.3008 51.075 51.6008 50.905 50.9808 50.565C50.3708 50.215 49.8908 49.74 49.5408 49.14C49.1908 48.53 49.0158 47.835 49.0158 47.055C49.0158 46.265 49.1908 45.57 49.5408 44.97C49.8908 44.37 50.3708 43.9 50.9808 43.56C51.6008 43.22 52.3008 43.05 53.0808 43.05C53.7508 43.05 54.3558 43.18 54.8958 43.44C55.4358 43.7 55.8608 44.09 56.1708 44.61L55.3758 45.15C55.1058 44.75 54.7708 44.455 54.3708 44.265C53.9708 44.075 53.5358 43.98 53.0658 43.98C52.5058 43.98 52.0008 44.11 51.5508 44.37C51.1008 44.62 50.7458 44.975 50.4858 45.435C50.2258 45.895 50.0958 46.435 50.0958 47.055C50.0958 47.675 50.2258 48.215 50.4858 48.675C50.7458 49.135 51.1008 49.495 51.5508 49.755C52.0008 50.005 52.5058 50.13 53.0658 50.13C53.5358 50.13 53.9708 50.035 54.3708 49.845C54.7708 49.655 55.1058 49.365 55.3758 48.975L56.1708 49.515C55.8608 50.025 55.4358 50.415 54.8958 50.685C54.3558 50.945 53.7508 51.075 53.0808 51.075ZM60.8279 51.075C60.1779 51.075 59.5629 50.985 58.9829 50.805C58.4029 50.615 57.9479 50.38 57.6179 50.1L58.0979 49.26C58.4179 49.5 58.8279 49.71 59.3279 49.89C59.8279 50.06 60.3529 50.145 60.9029 50.145C61.6529 50.145 62.1929 50.03 62.5229 49.8C62.8529 49.56 63.0179 49.245 63.0179 48.855C63.0179 48.565 62.9229 48.34 62.7329 48.18C62.5529 48.01 62.3129 47.885 62.0129 47.805C61.7129 47.715 61.3779 47.64 61.0079 47.58C60.6379 47.52 60.2679 47.45 59.8979 47.37C59.5379 47.29 59.2079 47.175 58.9079 47.025C58.6079 46.865 58.3629 46.65 58.1729 46.38C57.9929 46.11 57.9029 45.75 57.9029 45.3C57.9029 44.87 58.0229 44.485 58.2629 44.145C58.5029 43.805 58.8529 43.54 59.3129 43.35C59.7829 43.15 60.3529 43.05 61.0229 43.05C61.5329 43.05 62.0429 43.12 62.5529 43.26C63.0629 43.39 63.4829 43.565 63.8129 43.785L63.3479 44.64C62.9979 44.4 62.6229 44.23 62.2229 44.13C61.8229 44.02 61.4229 43.965 61.0229 43.965C60.3129 43.965 59.7879 44.09 59.4479 44.34C59.1179 44.58 58.9529 44.89 58.9529 45.27C58.9529 45.57 59.0429 45.805 59.2229 45.975C59.4129 46.145 59.6579 46.28 59.9579 46.38C60.2679 46.47 60.6029 46.545 60.9629 46.605C61.3329 46.665 61.6979 46.74 62.0579 46.83C62.4279 46.91 62.7629 47.025 63.0629 47.175C63.3729 47.315 63.6179 47.52 63.7979 47.79C63.9879 48.05 64.0829 48.395 64.0829 48.825C64.0829 49.285 63.9529 49.685 63.6929 50.025C63.4429 50.355 63.0729 50.615 62.5829 50.805C62.1029 50.985 61.5179 51.075 60.8279 51.075Z" fill="#A3A3A3"/>
<path d="M77.5385 28.6613L77.0759 19.443L86.472 9.08588H95.6191L85.084 20.6887L80.4215 25.458L77.5385 28.6613ZM70.0287 34V9.08588H78.286V34H70.0287ZM86.4009 34L79.069 24.3191L84.5145 18.5532L96.1174 34H86.4009Z" fill="#A3A3A3"/>
</svg>
